<svg width="324" height="228" viewBox="0 0 324 228" fill="none" xmlns="http://www.w3.org/2000/svg">
<path fill-rule="evenodd" clip-rule="evenodd" d="M227.886 224.593C228.163 224.31 228.431 224.017 228.684 223.711C228.431 224.017 228.163 224.31 227.886 224.593Z" fill="#EDF1F9"/>
<path fill-rule="evenodd" clip-rule="evenodd" d="M227.74 224.739C227.469 225.007 227.186 225.265 226.893 225.511C226.928 225.483 226.965 225.458 226.999 225.429C227.255 225.208 227.501 224.977 227.74 224.739Z" fill="#EDF1F9"/>
<path fill-rule="evenodd" clip-rule="evenodd" d="M229.583 222.505C229.813 222.158 230.03 221.803 230.229 221.436C230.03 221.803 229.813 222.158 229.583 222.505Z" fill="#EDF1F9"/>
<path fill-rule="evenodd" clip-rule="evenodd" d="M132.168 225.413C132.205 225.445 132.245 225.472 132.282 225.503C131.993 225.259 131.711 225.004 131.441 224.736C131.677 224.969 131.916 225.197 132.168 225.413Z" fill="#EDF1F9"/>
<path fill-rule="evenodd" clip-rule="evenodd" d="M223.574 227.594C223.808 227.489 224.037 227.378 224.263 227.261C224.037 227.378 223.807 227.489 223.574 227.594Z" fill="#EDF1F9"/>
<path fill-rule="evenodd" clip-rule="evenodd" d="M224.751 226.998C224.975 226.871 225.193 226.735 225.41 226.596C225.193 226.735 224.975 226.871 224.751 226.998Z" fill="#EDF1F9"/>
<path fill-rule="evenodd" clip-rule="evenodd" d="M228.797 223.572C229.055 223.253 229.301 222.926 229.53 222.586C229.301 222.926 229.055 223.253 228.797 223.572Z" fill="#EDF1F9"/>
<path fill-rule="evenodd" clip-rule="evenodd" d="M231.683 217.371C231.761 216.962 231.824 216.547 231.865 216.127C231.824 216.547 231.761 216.962 231.683 217.371Z" fill="#EDF1F9"/>
<path fill-rule="evenodd" clip-rule="evenodd" d="M230.264 221.375C230.462 221.009 230.639 220.631 230.804 220.247C230.639 220.631 230.462 221.009 230.264 221.375Z" fill="#EDF1F9"/>
<path fill-rule="evenodd" clip-rule="evenodd" d="M231.876 215.978C231.916 215.534 231.938 215.085 231.934 214.63C231.938 215.085 231.916 215.534 231.876 215.978Z" fill="#EDF1F9"/>
<path fill-rule="evenodd" clip-rule="evenodd" d="M230.872 220.091C231.026 219.718 231.163 219.338 231.285 218.95C231.163 219.338 231.026 219.718 230.872 220.091Z" fill="#EDF1F9"/>
<path fill-rule="evenodd" clip-rule="evenodd" d="M231.347 218.751C231.463 218.364 231.562 217.971 231.644 217.571C231.562 217.971 231.463 218.364 231.347 218.751Z" fill="#EDF1F9"/>
<path fill-rule="evenodd" clip-rule="evenodd" d="M129.65 222.582C129.882 222.924 130.13 223.253 130.39 223.574C130.13 223.253 129.882 222.924 129.65 222.582Z" fill="#EDF1F9"/>
<path fill-rule="evenodd" clip-rule="evenodd" d="M127.297 216.125C127.341 216.547 127.407 216.962 127.487 217.371C127.407 216.962 127.341 216.547 127.297 216.125Z" fill="#EDF1F9"/>
<path fill-rule="evenodd" clip-rule="evenodd" d="M127.526 217.569C127.61 217.969 127.712 218.363 127.829 218.749C127.712 218.363 127.61 217.969 127.526 217.569Z" fill="#EDF1F9"/>
<path fill-rule="evenodd" clip-rule="evenodd" d="M127.891 218.948C128.015 219.336 128.153 219.716 128.308 220.088C128.153 219.716 128.014 219.336 127.891 218.948Z" fill="#EDF1F9"/>
<path fill-rule="evenodd" clip-rule="evenodd" d="M48.982 78.2085L42.8586 83.9255C43.017 84.2664 43.1201 84.509 43.1201 84.509C43.1201 84.509 45.3438 87.474 44.67 88.4848C44.6383 88.5319 44.6066 88.5724 44.5749 88.6175C46.2225 90.3008 47.9341 91.8635 49.7569 93.2826C50.9024 88.3345 50.4213 83.1681 48.982 78.2085Z" fill="#EDF1F9"/>
<path fill-rule="evenodd" clip-rule="evenodd" d="M127.217 214.63C127.217 215.086 127.243 215.535 127.285 215.979C127.243 215.535 127.217 215.086 127.217 214.63Z" fill="#EDF1F9"/>
<path fill-rule="evenodd" clip-rule="evenodd" d="M128.377 220.249C128.543 220.631 128.72 221.007 128.917 221.371C128.72 221.007 128.543 220.631 128.377 220.249Z" fill="#EDF1F9"/>
<path fill-rule="evenodd" clip-rule="evenodd" d="M128.958 221.444C129.159 221.811 129.376 222.167 129.606 222.514C129.376 222.167 129.159 221.811 128.958 221.444Z" fill="#EDF1F9"/>
<path fill-rule="evenodd" clip-rule="evenodd" d="M132.685 225.82C132.893 225.983 133.101 226.144 133.318 226.295C133.101 226.144 132.892 225.983 132.685 225.82Z" fill="#EDF1F9"/>
<path fill-rule="evenodd" clip-rule="evenodd" d="M133.773 226.595C133.988 226.733 134.205 226.867 134.428 226.994C134.205 226.867 133.988 226.732 133.773 226.595Z" fill="#EDF1F9"/>
<path fill-rule="evenodd" clip-rule="evenodd" d="M130.497 223.707C130.751 224.013 131.018 224.307 131.297 224.59C131.018 224.307 130.751 224.013 130.497 223.707Z" fill="#EDF1F9"/>
<path fill-rule="evenodd" clip-rule="evenodd" d="M134.92 227.258C135.145 227.376 135.375 227.486 135.608 227.591C135.375 227.486 135.145 227.376 134.92 227.258Z" fill="#EDF1F9"/>
<path fill-rule="evenodd" clip-rule="evenodd" d="M225.858 226.302C226.079 226.148 226.291 225.984 226.501 225.819C226.291 225.984 226.079 226.148 225.858 226.302Z" fill="#EDF1F9"/>
<path fill-rule="evenodd" clip-rule="evenodd" d="M125.397 97.3126C124.806 97.2081 124.308 97.0815 123.99 96.7472C121.609 96.9123 119.386 97.3665 117.109 98.1886C114.75 98.9972 112.325 100.075 109.629 100.884C106.934 101.693 103.901 102.03 101.004 101.693C99.7194 101.543 98.4627 101.296 97.2309 100.98C96.6986 103.353 95.925 106.114 95.1527 108.67C94.7525 110.203 94.3953 111.666 94.1305 112.946C93.524 115.574 93.7936 118.337 94.8717 120.83C96.6911 125.143 98.1062 132.016 97.6345 134.779C97.3508 134.859 97.0719 134.928 96.7915 134.999C97.2848 135.832 97.7127 136.705 98.0388 137.609C98.1217 137.844 98.2167 138.134 98.3158 138.448C98.0867 133.798 98.084 129.134 98.2525 124.477C94.8569 117.311 100.667 109.303 100.667 109.24C104.592 117.508 101.446 122.971 99.8441 124.999C99.7781 126.829 99.7417 128.683 99.7403 130.556C102.095 124.577 109.09 121.652 109.09 121.706C108.049 131.187 102.016 134.027 99.7996 134.757C99.8872 138.001 100.077 141.282 100.397 144.567C102.502 138.199 109.966 135.116 109.966 135.116C108.944 144.428 103.108 147.331 100.8 148.124V148.125C101.159 149.72 101.519 151.402 101.864 153.123C102.615 153.181 103.357 153.262 104.077 153.403C106.77 149.24 111.246 146.998 111.246 147.043C111.11 151.015 110.021 153.893 108.642 155.967C110.035 157.651 110.734 159.91 111.468 162.163C113.451 160.471 115.222 159.577 115.222 159.577C115.116 162.65 114.438 165.065 113.499 166.965C113.892 167.588 114.341 168.167 114.885 168.674C117.918 171.437 122.432 171.234 126.408 172.245C126.678 172.313 126.949 172.397 127.217 172.494V95.8726C126.657 96.661 125.962 97.4123 125.397 97.3126Z" fill="#E0E9F8"/>
<path fill-rule="evenodd" clip-rule="evenodd" d="M74.9259 35.1153C75.4441 35.2568 75.9953 35.4314 76.533 35.4314C76.7648 35.4314 76.9939 35.399 77.217 35.3175C77.9582 35.1153 78.6995 34.1719 77.6887 33.4981C77.3046 33.242 76.8908 33.1416 76.4703 33.1416C75.785 33.1416 75.0809 33.4078 74.4542 33.7002C74.252 33.835 74.0499 33.9698 73.9825 34.1719C73.8477 34.6436 74.4542 34.9806 74.9259 35.1153Z" fill="#E0E9F8"/>
<path fill-rule="evenodd" clip-rule="evenodd" d="M180.923 21.0993C180.923 19.2125 178.834 17.6627 176.274 17.6627C176.161 17.6654 176.043 17.6667 175.919 17.6667C175.518 17.6667 175.059 17.6532 174.57 17.6397C174.08 17.6263 173.557 17.6128 173.031 17.6128C170.536 17.6128 167.918 17.9154 167.918 19.9538C167.918 20.9747 167.919 22.3918 169.244 23.3904H179.672C180.448 22.7927 180.923 21.9996 180.923 21.0993Z" fill="#E0E9F8"/>
<path fill-rule="evenodd" clip-rule="evenodd" d="M81.2599 34.8462C81.7411 35.2202 82.3489 35.3402 82.9836 35.3402C83.1487 35.3402 83.3165 35.3321 83.4836 35.3179C86.3812 35.1832 89.2114 34.105 91.5025 32.353C93.8684 30.4271 89.5403 28.9507 86.9917 28.9507C86.419 28.9507 85.9365 29.0248 85.64 29.1859C85.3704 29.3206 85.2357 29.5902 85.1009 29.8597C84.5618 30.6683 83.6184 31.2074 82.675 31.6117C82.1359 31.8139 81.5295 32.016 81.1252 32.4204C80.4513 33.0942 80.5187 34.3072 81.2599 34.8462Z" fill="#E0E9F8"/>
<path fill-rule="evenodd" clip-rule="evenodd" d="M80.2491 48.9968L78.2949 50.8162L82.4728 54.6572L79.1036 58.4982L75.1278 54.9267L73.6454 56.6788L77.4863 60.5197L72.6346 65.4389L67.7828 60.6545L48.9823 78.2084C50.421 83.168 50.9021 88.3344 49.7572 93.2825C49.9499 93.4328 50.1346 93.5939 50.33 93.7408C51.9917 94.9456 53.7309 96.046 55.5463 96.92C55.5503 96.6714 55.5611 96.42 55.5861 96.1666C55.923 92.3257 58.8879 89.1585 62.5941 88.4173C63.268 88.2825 63.8745 88.2151 64.4809 88.2151C65.9634 88.2151 67.3111 87.3391 67.8502 85.924C69.3327 81.9483 73.241 79.1855 77.7559 79.455C78.6346 79.5015 79.4796 79.674 80.2835 79.9422C80.2943 79.9301 80.3057 79.9193 80.3165 79.9079V76.7596H80.3839C80.3839 74.6707 82.1359 72.9187 84.2249 72.9187H87.7289C88.7397 72.9187 89.7505 72.6491 90.5591 72.1774C91.772 71.5036 93.3893 71.7057 94.1979 72.8513C94.578 73.3398 94.8657 73.9045 94.9257 74.5063C94.9594 74.6842 94.9675 74.8924 94.9392 75.1424C94.7296 77.4456 94.1892 79.0292 93.6514 80.0811C94.2073 82.0629 95.1413 83.9025 95.1413 83.9025C95.1319 83.8971 95.1238 83.8917 95.115 83.8863C95.6467 85.1774 95.9499 86.6498 95.9499 88.2151C95.9499 89.736 95.6609 91.1666 95.1568 92.4315C96.3536 92.8465 97.2882 93.7933 97.6939 95.0184C99.0739 95.6006 100.463 96.0925 101.88 96.4362C104.104 96.9753 106.395 96.9753 108.753 96.6383C111.179 96.3014 113.672 95.6275 116.368 95.1559C118.781 94.734 121.3 94.5844 123.688 94.8472C123.955 93.1902 124.966 91.0568 125.802 89.8998C126.124 89.455 126.654 88.9827 127.217 88.5629V37.6087C127.217 29.7246 133.618 23.3904 141.435 23.3904H160.643C160.575 23.3681 160.506 23.3452 160.438 23.323C152.814 20.7967 141.569 18.3311 130.317 18.3311C124.761 18.3311 119.2 18.9328 114.077 20.4254C100.933 24.2832 95.2781 37.8492 83.6865 37.8492C83.3327 37.8492 82.9728 37.8364 82.6076 37.8108C81.6238 37.7394 80.6609 37.705 79.7127 37.705C55.8091 37.705 43.4317 59.7529 46.4486 71.1201L75.8691 44.2125L80.2491 48.9968Z" fill="#E0E9F8"/>
<path fill-rule="evenodd" clip-rule="evenodd" d="M85.236 227.569C84.5466 227.338 84.205 226.619 84.368 225.953C83.4711 225.391 83.2144 225.075 83.2144 225.075C82.8775 224.805 82.7427 224.267 82.9449 223.862C83.147 223.525 83.6187 222.649 83.9556 221.975C84.0372 221.812 84.2164 221.736 84.3916 221.751C84.5257 221.359 84.7158 220.878 84.9664 220.627C85.4112 220.182 85.8532 219.736 86.2083 219.245C86.1773 218.672 86.1039 218.098 85.9772 217.528L84.3377 210.149C84.2191 210.065 84.1295 209.937 84.0904 209.779C81.4624 201.085 78.6996 191.046 78.4974 188.552C78.3627 186.934 78.43 184.711 78.767 182.622C79.0008 181.119 79.0844 179.6 79.0035 178.088C78.8647 177.439 78.8007 176.78 78.7959 176.116C78.6639 175.244 78.4799 174.379 78.2279 173.525C76.5372 167.826 74.9017 161.255 73.6207 155.21C73.5844 155.16 73.5459 155.112 73.5109 155.061C71.5048 152.189 70.767 148.4 71.7474 145.098C71.1073 140.872 70.866 137.668 71.2198 136.395C71.6437 134.815 72.3674 133.295 73.2845 131.926C72.9058 131.691 72.7023 131.544 72.7023 131.544L76.678 120.56C77.1443 119.288 77.3963 117.934 77.4361 116.586C76.3761 117.064 75.24 117.394 74.05 117.527C67.7158 118.269 62.1901 113.755 61.3141 107.69C61.1794 106.342 60.5055 105.129 59.4273 104.387C58.2131 103.557 57.2151 102.436 56.5331 101.122C55.2865 100.55 54.1039 99.8786 52.9583 99.1313C51.5217 98.1946 50.203 97.1387 48.9442 96.0234C46.0318 104.091 39.6517 110.519 34.4947 117.461C29.2387 124.603 24.9934 133.431 27.6214 141.786C29.8451 148.862 36.5163 153.781 40.6942 160.115C53.5648 179.657 40.829 209.643 58.0123 225.951C58.645 226.553 59.304 227.108 59.9772 227.636H85.43C85.3647 227.613 85.2973 227.589 85.236 227.569Z" fill="#E0E9F8"/>
<path fill-rule="evenodd" clip-rule="evenodd" d="M311.651 162.002C310.977 162.272 310.303 162.609 309.966 163.216C309.697 163.687 309.561 164.227 309.561 164.766C309.427 165.911 309.36 166.989 309.36 168.135C309.36 169.347 309.495 170.695 310.438 171.571C311.052 172.121 311.836 172.314 312.665 172.314C313.565 172.314 314.516 172.087 315.357 171.841C316.3 171.571 317.311 171.302 317.918 170.56C318.39 170.021 318.524 169.347 318.659 168.674C319.063 166.451 320.276 163.081 318.929 161.868C318.277 161.335 317.249 161.114 316.101 161.114C314.635 161.114 312.973 161.474 311.651 162.002Z" fill="#E0E9F8"/>
<path fill-rule="evenodd" clip-rule="evenodd" d="M126.88 92.9997C126.972 93.0408 127.088 93.0226 127.217 92.9707V91.4795C126.738 92.183 126.474 92.8184 126.88 92.9997Z" fill="#E0E9F8"/>
<path fill-rule="evenodd" clip-rule="evenodd" d="M32.6753 107.892C33.3492 108.364 34.1578 108.701 34.9664 108.701C35.9098 108.701 36.7185 108.161 37.4597 107.623C39.1443 106.342 40.4247 104.591 41.705 102.973C42.3788 102.097 43.0527 101.153 43.1875 100.143C43.5244 97.7841 41.4354 95.9647 40.7616 93.9431C40.238 92.3724 39.2434 91.373 37.7784 91.373C37.1693 91.373 36.4792 91.5456 35.7077 91.9216C34.1578 92.6628 33.0796 94.0779 32.1362 95.493C30.6538 97.7841 29.3734 100.345 29.7104 102.973C29.9125 104.928 31.0581 106.746 32.6753 107.892Z" fill="#E0E9F8"/>
<path fill-rule="evenodd" clip-rule="evenodd" d="M291.099 70.7621L242.311 87.6758C238.673 88.9562 234.562 86.9346 233.282 83.2284L231.934 79.3362V192.034C232.859 191.743 233.848 191.479 234.899 191.247C233.349 188.282 236.921 185.116 240.223 184.509C241.637 184.249 243.125 184.187 244.565 184.036C245.863 181.624 247.023 179.126 248.056 176.56C245.807 175.606 240.208 172.304 239.886 162.945C239.886 162.945 247.956 167.013 248.942 174.268C250.168 170.94 251.195 167.514 252.039 164.03C249.795 163.08 244.184 159.78 243.861 150.412C243.861 150.354 251.272 154.082 252.758 160.821C253.403 157.736 253.915 154.618 254.307 151.493C252.001 150.701 246.165 147.798 245.142 138.484C245.198 138.484 252.617 141.565 254.712 147.927C255.032 144.643 255.221 141.367 255.309 138.126C253.092 137.396 247.059 134.557 246.018 125.075C246.073 125.02 253.021 127.942 255.367 133.91C255.366 132.011 255.328 130.132 255.26 128.276C253.639 126.18 250.64 120.758 254.508 112.608C254.508 112.672 260.311 120.757 256.859 127.949C257.027 132.691 257.021 137.441 256.775 142.175C258.109 139.459 261.391 135.269 269.13 134.374C269.13 134.374 265.109 144.262 256.634 144.545C256.388 148.108 255.997 151.66 255.444 155.192C257.045 152.483 260.45 148.963 267.514 148.121C267.579 148.121 263.45 158.094 254.883 158.487C254.59 160.046 254.265 161.599 253.902 163.148C253.454 165.035 252.944 166.912 252.382 168.774C254.589 166.521 258.731 163.926 265.761 164.765C265.718 164.765 263.026 168.492 258.833 170.629C259.657 170.467 260.516 170.428 261.388 170.428C261.721 170.428 262.053 170.433 262.388 170.438C262.722 170.443 263.055 170.448 263.388 170.448C264.776 170.448 266.142 170.36 267.379 169.819C271.422 168.067 272.568 162.406 276.611 160.52C277.414 160.127 278.283 159.945 279.159 159.945C281.734 159.945 284.366 161.508 285.573 163.821C287.19 166.922 286.449 170.965 284.225 173.727C282.473 175.816 279.845 177.367 278.767 179.859C277.082 183.835 279.778 188.619 278.161 192.662C275.263 200.075 261.516 197.851 259.09 205.466C258.551 207.15 258.754 208.97 258.619 210.789C258.214 216.045 254.508 220.627 249.925 223.255C245.344 225.884 239.953 226.759 234.697 227.164C234.041 227.205 233.371 227.239 232.706 227.239C231.183 227.239 229.675 227.058 228.362 226.355C227.865 226.097 227.413 225.784 226.999 225.429C226.964 225.458 226.928 225.482 226.894 225.511C226.766 225.618 226.632 225.717 226.502 225.819C226.291 225.984 226.079 226.148 225.859 226.302C225.712 226.404 225.56 226.499 225.41 226.596C225.193 226.735 224.975 226.871 224.751 226.998C224.59 227.09 224.428 227.175 224.263 227.261C224.037 227.377 223.808 227.489 223.574 227.594C223.545 227.606 223.518 227.623 223.488 227.635H288.554C292.213 223.77 295.115 219.258 296.961 214.36C303.363 197.312 297.298 177.568 304.508 160.789C310.371 147.11 324.723 136.059 323.848 121.301C323.309 112.137 316.772 104.455 312.325 96.3012C307.231 87.0923 311.167 57.0687 289.745 44.9097L295.546 61.6651C296.826 65.3713 294.805 69.4818 291.099 70.7621Z" fill="#E0E9F8"/>
<path fill-rule="evenodd" clip-rule="evenodd" d="M251.364 171.937C250.275 175.13 249.007 178.26 247.549 181.293C248.653 180.526 250.155 179.745 252.058 179.296C253.434 176.548 254.13 173.24 256.563 171.555C254.967 172.046 253.219 172.242 251.364 171.937Z" fill="#E0E9F8"/>
<path fill-rule="evenodd" clip-rule="evenodd" d="M134.92 227.258C134.754 227.172 134.59 227.085 134.428 226.993C134.205 226.867 133.988 226.733 133.773 226.595C133.62 226.496 133.467 226.399 133.319 226.295C133.102 226.144 132.893 225.983 132.685 225.82C132.55 225.715 132.413 225.614 132.283 225.503C132.246 225.472 132.205 225.445 132.168 225.413C131.144 225.366 130.114 225.23 129.104 225.075C122.702 224.131 116.234 222.515 110.843 218.876C105.452 215.236 101.341 209.24 101.341 202.77C101.341 200.546 101.746 198.39 101.273 196.234C100.872 194.455 99.9553 193.059 98.7114 191.903C96.4695 198.588 93.5921 206.895 91.3677 212.609C91.3361 212.6 91.3044 212.579 91.2734 212.568L89.6521 218.118C90.2161 221.425 91.0692 224.143 92.3118 225.075C93.489 225.947 94.799 226.812 95.9708 227.636H135.701C135.669 227.622 135.639 227.605 135.608 227.591C135.374 227.486 135.145 227.375 134.92 227.258Z" fill="#E0E9F8"/>
<path fill-rule="evenodd" clip-rule="evenodd" d="M88.9168 205.862C89.5806 199.935 90.4593 193.128 91.2484 187.738C90.1898 187.303 89.1197 186.874 88.0725 186.426C88.3218 190.911 88.6891 198.711 88.9168 205.862Z" fill="#E0E9F8"/>
<path fill-rule="evenodd" clip-rule="evenodd" d="M226.519 26.4581C225.282 21.3813 226.049 16.1919 228.365 11.8058C224.067 9.78157 219.502 8.84424 215.075 8.84424C205.972 8.84424 197.452 12.795 193.053 19.3469C191.917 21.0221 190.559 22.3537 189.029 23.3901H217.716C221.051 23.3901 224.101 24.545 226.519 26.4581Z" fill="#E0E9F8"/>
<path fill-rule="evenodd" clip-rule="evenodd" d="M236.044 25.2101L238.066 31.0726L244.701 28.7714C244.151 27.8401 243.606 26.8752 243.053 25.8839C241.113 22.4001 238.808 19.5066 236.261 17.1494C235.245 19.6393 235.085 22.4863 236.044 25.2101Z" fill="#E0E9F8"/>
<path fill-rule="evenodd" clip-rule="evenodd" d="M264.346 60.1832C267.109 57.8247 268.322 53.9164 267.042 50.2102C265.357 45.4932 260.168 42.9999 255.451 44.6172C250.735 46.3018 248.241 51.4905 249.859 56.2075C251.139 59.9137 254.508 62.2048 258.147 62.3395L261.516 72.1104C261.651 72.5147 262.123 72.7169 262.46 72.5821L267.177 70.9649C267.581 70.7627 267.85 70.3584 267.716 69.9541L264.346 60.1832Z" fill="#E0E9F8"/>
<path fill-rule="evenodd" clip-rule="evenodd" d="M226.999 225.428C227.413 225.784 227.865 226.097 228.362 226.355C229.675 227.058 231.183 227.24 232.706 227.24C233.371 227.24 234.041 227.205 234.697 227.164C239.953 226.76 245.344 225.884 249.925 223.255C254.508 220.627 258.214 216.045 258.619 210.789C258.753 208.97 258.551 207.15 259.09 205.466C261.516 197.851 275.263 200.075 278.161 192.662C279.778 188.619 277.082 183.835 278.767 179.859C279.845 177.366 282.473 175.816 284.225 173.727C286.449 170.965 287.19 166.922 285.573 163.821C284.366 161.509 281.734 159.945 279.158 159.945C278.283 159.945 277.414 160.127 276.611 160.52C272.568 162.407 271.422 168.067 267.379 169.819C266.142 170.36 264.776 170.448 263.388 170.448C263.055 170.448 262.722 170.443 262.388 170.439C262.053 170.433 261.72 170.428 261.388 170.428C260.516 170.428 259.656 170.467 258.833 170.629C258.118 170.992 257.359 171.309 256.563 171.554C254.131 173.24 253.433 176.548 252.058 179.296C254.597 178.697 257.853 178.692 261.853 180.129C261.853 180.129 253.945 187.041 246.233 183.902C243.282 189.49 239.65 194.697 235.236 199.267C234.192 200.33 233.09 201.409 231.934 202.456V214.631C231.938 215.085 231.916 215.534 231.876 215.978C231.872 216.028 231.87 216.077 231.865 216.127C231.824 216.547 231.761 216.961 231.683 217.371C231.671 217.437 231.658 217.504 231.645 217.571C231.562 217.971 231.462 218.364 231.347 218.751C231.327 218.817 231.306 218.883 231.285 218.95C231.163 219.337 231.026 219.718 230.872 220.091C230.85 220.143 230.826 220.195 230.803 220.247C230.639 220.631 230.462 221.009 230.264 221.375C230.253 221.395 230.241 221.416 230.229 221.436C230.03 221.802 229.813 222.158 229.583 222.505C229.565 222.532 229.549 222.559 229.53 222.586C229.301 222.926 229.055 223.253 228.797 223.571C228.759 223.617 228.722 223.665 228.684 223.711C228.431 224.016 228.164 224.31 227.886 224.593C227.838 224.641 227.789 224.69 227.741 224.739C227.5 224.976 227.255 225.208 226.999 225.428Z" fill="#C5D6F1"/>
<path fill-rule="evenodd" clip-rule="evenodd" d="M244.565 184.037C243.124 184.187 241.636 184.249 240.223 184.509C236.92 185.116 233.349 188.283 234.899 191.248C233.848 191.479 232.86 191.743 231.934 192.034V200.333C237.133 195.663 241.289 190.128 244.565 184.037Z" fill="#C5D6F1"/>
<path fill-rule="evenodd" clip-rule="evenodd" d="M79.0039 178.088C78.9689 177.429 78.8961 176.77 78.7964 176.115C78.8011 176.78 78.8651 177.439 79.0039 178.088Z" fill="#EFCD8F"/>
<path fill-rule="evenodd" clip-rule="evenodd" d="M104.194 169.875C104.288 172.491 104.121 174.581 103.565 175.749C103.549 175.839 103.526 175.931 103.51 176.022C105.176 176.468 106.511 177.165 107.527 177.857C106.281 175.259 105.168 172.593 104.194 169.875Z" fill="#C5D6F1"/>
<path fill-rule="evenodd" clip-rule="evenodd" d="M114.886 168.674C114.342 168.167 113.892 167.587 113.499 166.965C111.579 170.848 108.562 172.551 107.052 173.191C111.338 183.833 117.809 193.326 127.217 200.259V172.494C126.948 172.397 126.678 172.313 126.408 172.245C122.433 171.234 117.918 171.437 114.886 168.674Z" fill="#C5D6F1"/>
<path fill-rule="evenodd" clip-rule="evenodd" d="M73.5107 155.062C73.5465 155.111 73.5842 155.16 73.6206 155.21C72.843 151.54 72.1967 148.068 71.7473 145.099C70.7675 148.4 71.5047 152.188 73.5107 155.062Z" fill="#C5D6F1"/>
<path fill-rule="evenodd" clip-rule="evenodd" d="M111.468 162.163C110.734 159.909 110.036 157.651 108.642 155.967C106.832 158.689 104.523 160.023 103.202 160.603C103.277 161.079 103.347 161.55 103.414 162.018C104.189 165.035 105.1 168.004 106.166 170.899C106.691 167.04 109.215 164.085 111.468 162.163Z" fill="#C5D6F1"/>
<path fill-rule="evenodd" clip-rule="evenodd" d="M119.872 195.898C115.462 191.333 111.834 186.133 108.884 180.553C106.603 181.462 104.312 181.511 102.215 181.121C102.193 181.194 102.171 181.27 102.15 181.342C101.743 182.707 100.409 186.84 98.7117 191.903C99.9556 193.059 100.873 194.455 101.274 196.235C101.745 198.39 101.341 200.547 101.341 202.77C101.341 209.24 105.452 215.237 110.842 218.876C116.233 222.515 122.702 224.132 129.104 225.076C130.114 225.231 131.144 225.366 132.168 225.413C131.917 225.196 131.677 224.97 131.441 224.737C131.393 224.689 131.345 224.64 131.297 224.59C131.019 224.307 130.751 224.014 130.497 223.708C130.46 223.663 130.425 223.618 130.39 223.574C130.13 223.254 129.881 222.924 129.65 222.582C129.636 222.559 129.621 222.537 129.607 222.514C129.375 222.167 129.159 221.811 128.958 221.444C128.945 221.42 128.93 221.396 128.917 221.371C128.72 221.007 128.543 220.631 128.377 220.249C128.354 220.196 128.33 220.142 128.307 220.088C128.152 219.716 128.015 219.336 127.891 218.948C127.87 218.882 127.849 218.817 127.829 218.75C127.712 218.363 127.61 217.969 127.526 217.569C127.512 217.504 127.5 217.438 127.487 217.371C127.407 216.962 127.341 216.547 127.297 216.126C127.293 216.077 127.29 216.028 127.285 215.98C127.243 215.535 127.217 215.086 127.217 214.631V202.384C124.534 200.46 122.074 198.142 119.872 195.898Z" fill="#C5D6F1"/>
<path fill-rule="evenodd" clip-rule="evenodd" d="M89.7631 160.126C89.7429 160.54 89.722 160.953 89.7004 161.368C89.9464 161.342 90.1917 161.316 90.4302 161.298C90.2065 160.909 89.9841 160.518 89.7631 160.126Z" fill="#C5D6F1"/>
<path fill-rule="evenodd" clip-rule="evenodd" d="M93.3222 176.76C93.4435 176.717 93.5608 176.681 93.6807 176.64C95.3957 173.173 95.1053 169.018 93.0527 165.708C92.8094 165.316 92.5662 164.915 92.3229 164.513C91.017 163.355 90.1026 162.276 89.6807 161.744C89.2825 169.269 88.678 177.013 87.7292 182.218C87.7966 182.555 87.864 182.824 87.864 183.094C87.9112 183.677 87.9846 184.849 88.0722 186.426C89.1201 186.874 90.1902 187.303 91.2488 187.739C91.9018 183.276 92.4941 179.787 92.8505 178.579C93.0379 178.016 93.2845 177.459 93.5338 176.95C93.3903 176.83 93.3155 176.76 93.3222 176.76Z" fill="#C5D6F1"/>
<path fill-rule="evenodd" clip-rule="evenodd" d="M101.864 153.123C102.1 154.302 102.328 155.496 102.545 156.692C102.899 155.49 103.436 154.393 104.076 153.403C103.357 153.262 102.616 153.181 101.864 153.123Z" fill="#C5D6F1"/>
<mask id="mask0" mask-type="alpha" maskUnits="userSpaceOnUse" x="225" y="0" width="71" height="89">
<path fill-rule="evenodd" clip-rule="evenodd" d="M225.932 0.673828H295.931V88.0613H225.932V0.673828Z" fill="white"/>
</mask>
<g mask="url(#mask0)">
<path fill-rule="evenodd" clip-rule="evenodd" d="M243.053 10.6547C248.983 8.56579 255.519 11.7329 257.608 17.7302L259.63 23.5927L244.7 28.7713L238.066 31.0725L236.045 25.21C235.085 22.4863 235.246 19.6392 236.262 17.1493C237.458 14.2188 239.846 11.7841 243.053 10.6547ZM267.177 70.9647L262.46 72.582C262.123 72.7167 261.651 72.5146 261.516 72.1103L258.146 62.3394C254.508 62.2046 251.139 59.9135 249.859 56.2073C248.241 51.4903 250.734 46.3016 255.451 44.617C260.168 42.9997 265.357 45.493 267.042 50.21C268.322 53.9162 267.109 57.8245 264.347 60.183L267.716 69.9539C267.851 70.3582 267.58 70.7626 267.177 70.9647ZM226.519 26.4586C229.818 29.0685 231.934 33.0988 231.934 37.6089V79.3367L233.282 83.2289C234.562 86.9351 238.673 88.9566 242.311 87.6763L291.099 70.7626C294.805 69.4822 296.826 65.3717 295.545 61.6655L289.745 44.9101L282.27 23.3232C281.058 19.617 277.014 17.5954 273.241 18.9431L268.524 20.5604L266.503 14.6979C262.729 3.8488 250.802 -1.94634 239.952 1.82724C234.773 3.62913 230.749 7.29153 228.365 11.8057C226.049 16.1918 225.282 21.3818 226.519 26.4586Z" fill="#C5D6F1"/>
</g>
<path fill-rule="evenodd" clip-rule="evenodd" d="M235.236 199.267C239.651 194.697 243.281 189.49 246.233 183.902C253.945 187.041 261.853 180.129 261.853 180.129C257.852 178.692 254.597 178.697 252.058 179.296C250.155 179.745 248.653 180.526 247.548 181.292C249.007 178.26 250.275 175.131 251.364 171.937C253.219 172.242 254.967 172.046 256.562 171.554C257.359 171.309 258.118 170.992 258.833 170.629C263.025 168.492 265.718 164.765 265.761 164.765C258.73 163.926 254.589 166.521 252.382 168.773C252.943 166.912 253.453 165.035 253.901 163.147C254.265 161.6 254.59 160.046 254.883 158.487C263.45 158.094 267.579 148.121 267.513 148.121C260.45 148.964 257.044 152.483 255.444 155.193C255.998 151.661 256.388 148.108 256.633 144.545C265.108 144.262 269.131 134.374 269.131 134.374C261.391 135.269 258.109 139.459 256.775 142.175C257.021 137.441 257.027 132.691 256.859 127.949C260.31 120.757 254.509 112.672 254.509 112.608C250.639 120.758 253.639 126.18 255.26 128.276C255.328 130.132 255.366 132.011 255.367 133.91C253.021 127.942 246.073 125.02 246.017 125.075C247.059 134.557 253.092 137.397 255.308 138.127C255.22 141.367 255.031 144.643 254.711 147.927C252.616 141.565 245.198 138.485 245.141 138.485C246.165 147.798 252 150.701 254.308 151.493C253.915 154.618 253.403 157.736 252.758 160.821C251.272 154.082 243.861 150.354 243.861 150.412C244.184 159.78 249.794 163.08 252.039 164.03C251.195 167.514 250.168 170.94 248.942 174.268C247.955 167.013 239.885 162.946 239.885 162.946C240.208 172.304 245.807 175.607 248.056 176.561C247.023 179.126 245.863 181.624 244.565 184.036C241.289 190.127 237.133 195.663 231.934 200.333V202.456C233.089 201.41 234.192 200.33 235.236 199.267Z" fill="#99B9EE"/>
<path fill-rule="evenodd" clip-rule="evenodd" d="M107.052 173.191C108.562 172.551 111.579 170.847 113.499 166.965C114.438 165.065 115.116 162.65 115.223 159.577C115.223 159.577 113.452 160.471 111.468 162.163C109.214 164.085 106.69 167.04 106.166 170.899C105.1 168.005 104.188 165.035 103.414 162.019C103.826 164.879 104.112 167.58 104.194 169.875C105.168 172.593 106.281 175.259 107.527 177.857C106.51 177.165 105.176 176.467 103.51 176.022C103.185 177.746 102.706 179.511 102.215 181.122C104.312 181.511 106.603 181.461 108.884 180.552C111.834 186.133 115.462 191.333 119.872 195.897C122.074 198.141 124.533 200.461 127.217 202.384V200.259C117.809 193.326 111.337 183.833 107.052 173.191Z" fill="#99B9EE"/>
<path fill-rule="evenodd" clip-rule="evenodd" d="M92.3231 164.513C91.689 163.463 91.0556 162.388 90.4302 161.298C90.1917 161.317 89.9464 161.342 89.7004 161.368C89.6944 161.494 89.687 161.619 89.6809 161.744C90.1027 162.277 91.0172 163.356 92.3231 164.513Z" fill="#99B9EE"/>
<path fill-rule="evenodd" clip-rule="evenodd" d="M93.6804 176.64C93.5605 176.682 93.4432 176.716 93.322 176.76C93.3152 176.76 93.39 176.829 93.5342 176.951C93.5538 176.91 93.572 176.867 93.5915 176.827C93.6238 176.766 93.6501 176.702 93.6804 176.64Z" fill="#FDB32A"/>
<path fill-rule="evenodd" clip-rule="evenodd" d="M109.966 135.116C109.966 135.116 102.502 138.199 100.398 144.567C100.078 141.281 99.8875 138.001 99.7999 134.757C102.016 134.027 108.049 131.187 109.09 121.706C109.09 121.651 102.096 124.577 99.7406 130.555C99.7419 128.683 99.7783 126.829 99.8444 124.999C101.446 122.971 104.592 117.508 100.667 109.24C100.667 109.303 94.8572 117.311 98.2527 124.477C98.0842 129.134 98.0869 133.798 98.3154 138.448C98.9427 140.443 99.8666 143.974 100.801 148.125V148.124C103.108 147.331 108.943 144.428 109.966 135.116Z" fill="#99B9EE"/>
<path fill-rule="evenodd" clip-rule="evenodd" d="M108.642 155.967C110.021 153.893 111.11 151.014 111.246 147.043C111.246 146.997 106.771 149.241 104.077 153.402C103.436 154.392 102.899 155.49 102.545 156.692C102.782 158.003 103.002 159.313 103.203 160.603C104.523 160.023 106.832 158.689 108.642 155.967Z" fill="#99B9EE"/>
<path fill-rule="evenodd" clip-rule="evenodd" d="M142.985 29.3879H160.573C162.459 29.3879 164.009 30.9378 164.009 32.8246V35.2505C164.009 37.1373 165.559 38.6871 167.446 38.6871H195.007C196.893 38.6871 198.443 37.1373 198.443 35.2505V32.8246C198.443 30.9378 199.993 29.3879 201.88 29.3879H208.079H217.176C222.702 29.3879 227.149 33.8354 227.149 39.361V211.598C227.149 217.124 222.702 221.571 217.176 221.571H142.042C136.516 221.571 132.069 217.124 132.069 211.598V39.361C132.069 33.8354 136.516 29.3879 142.042 29.3879H142.985ZM127.217 37.609V88.5631C128.187 87.8394 129.252 87.272 129.508 87.272C130.788 87.3394 128.901 89.361 128.025 90.4391C127.737 90.7727 127.453 91.1339 127.217 91.4802V92.9708C127.941 92.6811 129.159 91.1905 129.845 91.2478C130.653 91.3151 128.228 94.2127 128.228 94.2127C128.228 94.2127 127.794 95.0618 127.217 95.8731V172.494V200.259V202.385V214.631C127.217 215.086 127.243 215.535 127.285 215.98C127.29 216.029 127.292 216.077 127.297 216.126C127.341 216.547 127.407 216.962 127.487 217.372C127.5 217.437 127.512 217.504 127.526 217.569C127.61 217.969 127.711 218.362 127.829 218.75C127.849 218.816 127.87 218.883 127.891 218.949C128.015 219.336 128.152 219.716 128.307 220.089C128.329 220.142 128.354 220.195 128.377 220.248C128.542 220.631 128.72 221.007 128.917 221.371C128.93 221.395 128.945 221.42 128.959 221.445C129.159 221.811 129.375 222.168 129.606 222.514C129.621 222.537 129.635 222.56 129.65 222.582C129.881 222.924 130.13 223.253 130.389 223.574C130.425 223.618 130.46 223.664 130.496 223.707C130.75 224.013 131.019 224.308 131.297 224.591C131.345 224.64 131.393 224.688 131.441 224.736C131.711 225.004 131.992 225.259 132.283 225.503C132.413 225.614 132.55 225.715 132.684 225.821C132.892 225.984 133.102 226.145 133.318 226.296C133.467 226.399 133.62 226.496 133.773 226.595C133.988 226.732 134.205 226.868 134.428 226.994C134.59 227.086 134.754 227.173 134.92 227.259C135.145 227.375 135.374 227.486 135.608 227.591C135.639 227.605 135.669 227.622 135.701 227.636H223.488C223.517 227.623 223.545 227.607 223.574 227.594C223.807 227.489 224.037 227.378 224.263 227.261C224.428 227.176 224.59 227.09 224.75 226.998C224.974 226.871 225.193 226.735 225.41 226.596C225.56 226.5 225.711 226.404 225.858 226.302C226.079 226.149 226.29 225.985 226.501 225.82C226.632 225.717 226.767 225.618 226.893 225.511C227.186 225.265 227.469 225.008 227.74 224.739C227.789 224.69 227.837 224.642 227.886 224.593C228.164 224.31 228.43 224.017 228.684 223.712C228.722 223.666 228.759 223.618 228.796 223.572C229.054 223.253 229.301 222.926 229.53 222.587C229.548 222.56 229.565 222.532 229.583 222.505C229.813 222.159 230.029 221.803 230.229 221.436C230.24 221.416 230.253 221.395 230.264 221.375C230.461 221.009 230.639 220.632 230.804 220.247C230.826 220.195 230.85 220.144 230.872 220.091C231.026 219.719 231.163 219.338 231.286 218.951C231.306 218.884 231.327 218.817 231.347 218.751C231.462 218.364 231.562 217.971 231.645 217.572C231.658 217.505 231.67 217.437 231.682 217.371C231.761 216.961 231.823 216.548 231.865 216.127C231.87 216.078 231.872 216.028 231.877 215.978C231.916 215.534 231.938 215.085 231.934 214.631V202.457V200.333V192.034V79.3367V37.609C231.934 33.0988 229.818 29.0685 226.519 26.4587C224.1 24.5449 221.05 23.3906 217.715 23.3906H189.029H179.672H169.244H160.643H141.435C133.618 23.3906 127.217 29.7249 127.217 37.609Z" fill="#99B9EE"/>
<path fill-rule="evenodd" clip-rule="evenodd" d="M145.344 115.169H211.246C214.279 115.169 216.705 117.596 216.705 120.628C216.705 123.593 214.279 126.086 211.246 126.086H145.344C142.311 126.086 139.885 123.661 139.885 120.628C139.885 117.596 142.311 115.169 145.344 115.169ZM178.295 82.8924C185.887 82.8924 192.042 89.0467 192.042 96.6384C192.042 101.234 189.778 105.293 186.314 107.789C184.056 109.416 181.291 110.385 178.295 110.385C175.269 110.385 172.48 109.396 170.209 107.739C166.784 105.239 164.548 101.204 164.548 96.6384C164.548 89.0467 170.703 82.8924 178.295 82.8924ZM211.314 145.628H145.411C142.379 145.628 139.953 143.202 139.953 140.17C139.953 137.138 142.379 134.711 145.411 134.711H211.314C214.346 134.711 216.772 137.138 216.772 140.17C216.772 143.202 214.279 145.628 211.314 145.628ZM132.069 39.3607V211.599C132.069 217.124 136.516 221.571 142.042 221.571H217.176C222.702 221.571 227.149 217.124 227.149 211.599V39.3607C227.149 33.8351 222.702 29.3877 217.176 29.3877H208.079H201.88C199.993 29.3877 198.443 30.9376 198.443 32.8244V35.2502C198.443 37.137 196.893 38.6869 195.007 38.6869H167.446C165.559 38.6869 164.009 37.137 164.009 35.2502V32.8244C164.009 30.9376 162.459 29.3877 160.573 29.3877H142.985H142.042C136.516 29.3877 132.069 33.8351 132.069 39.3607Z" fill="#F7F7F7"/>
<path fill-rule="evenodd" clip-rule="evenodd" d="M178.295 88.1482C181.26 88.1482 183.618 90.5066 183.618 93.4716C183.618 96.4366 181.26 98.7951 178.295 98.7951C175.33 98.7951 172.972 96.4366 172.972 93.4716C172.972 90.5066 175.33 88.1482 178.295 88.1482ZM170.209 107.738C170.219 103.436 173.719 100.008 177.958 100.008H178.565C182.877 100.008 186.314 103.512 186.314 107.757V107.788C189.778 105.292 192.042 101.234 192.042 96.6387C192.042 89.0464 185.887 82.8921 178.295 82.8921C170.703 82.8921 164.548 89.0464 164.548 96.6387C164.548 101.205 166.784 105.238 170.209 107.738Z" fill="#D6E2F6"/>
<path fill-rule="evenodd" clip-rule="evenodd" d="M178.565 100.007H177.958C173.719 100.007 170.22 103.435 170.21 107.738C172.481 109.395 175.269 110.385 178.295 110.385C181.291 110.385 184.055 109.416 186.314 107.788V107.757C186.314 103.511 182.877 100.007 178.565 100.007Z" fill="#99B9EE"/>
<path fill-rule="evenodd" clip-rule="evenodd" d="M178.295 98.7948C181.26 98.7948 183.619 96.4364 183.619 93.4714C183.619 90.5064 181.26 88.1479 178.295 88.1479C175.33 88.1479 172.972 90.5064 172.972 93.4714C172.972 96.4364 175.33 98.7948 178.295 98.7948Z" fill="#99B9EE"/>
<path fill-rule="evenodd" clip-rule="evenodd" d="M147.635 119.213H208.955C209.764 119.213 210.371 119.819 210.371 120.628C210.371 121.369 209.764 122.043 208.955 122.043H147.635C146.826 122.043 146.219 121.437 146.219 120.628C146.219 119.819 146.826 119.213 147.635 119.213ZM145.343 126.086H211.246C214.279 126.086 216.705 123.593 216.705 120.628C216.705 117.596 214.279 115.169 211.246 115.169H145.343C142.311 115.169 139.885 117.596 139.885 120.628C139.885 123.661 142.311 126.086 145.343 126.086Z" fill="#D6E2F6"/>
<path fill-rule="evenodd" clip-rule="evenodd" d="M147.635 122.043H208.955C209.764 122.043 210.371 121.369 210.371 120.627C210.371 119.819 209.764 119.212 208.955 119.212H147.635C146.826 119.212 146.219 119.819 146.219 120.627C146.219 121.437 146.826 122.043 147.635 122.043Z" fill="#99B9EE"/>
<path fill-rule="evenodd" clip-rule="evenodd" d="M172.5 141.72C171.691 141.72 171.085 141.113 171.085 140.304C171.085 139.496 171.691 138.889 172.5 138.889C173.309 138.889 173.915 139.496 173.915 140.304C173.915 141.113 173.241 141.72 172.5 141.72ZM168.255 141.72C167.446 141.72 166.84 141.113 166.84 140.304C166.84 139.496 167.446 138.889 168.255 138.889C169.063 138.889 169.67 139.496 169.67 140.304C169.67 141.113 168.996 141.72 168.255 141.72ZM164.009 141.72C163.201 141.72 162.594 141.113 162.594 140.304C162.594 139.496 163.201 138.889 164.009 138.889C164.818 138.889 165.425 139.496 165.425 140.304C165.425 141.113 164.818 141.72 164.009 141.72ZM159.764 141.72C158.956 141.72 158.349 141.113 158.349 140.304C158.349 139.496 158.956 138.889 159.764 138.889C160.573 138.889 161.179 139.496 161.179 140.304C161.179 141.113 160.573 141.72 159.764 141.72ZM155.519 141.72C154.71 141.72 154.104 141.113 154.104 140.304C154.104 139.496 154.71 138.889 155.519 138.889C156.328 138.889 156.934 139.496 156.934 140.304C156.934 141.113 156.328 141.72 155.519 141.72ZM151.341 141.72C150.532 141.72 149.926 141.113 149.926 140.304C149.926 139.496 150.532 138.889 151.341 138.889C152.15 138.889 152.756 139.496 152.756 140.304C152.756 141.113 152.082 141.72 151.341 141.72ZM147.096 141.72C146.287 141.72 145.681 141.113 145.681 140.304C145.681 139.496 146.287 138.889 147.096 138.889C147.904 138.889 148.511 139.496 148.511 140.304C148.511 141.113 147.837 141.72 147.096 141.72ZM211.314 134.711H145.411C142.379 134.711 139.953 137.137 139.953 140.17C139.953 143.202 142.379 145.628 145.411 145.628H211.314C214.279 145.628 216.772 143.202 216.772 140.17C216.772 137.137 214.346 134.711 211.314 134.711Z" fill="#D6E2F6"/>
<path fill-rule="evenodd" clip-rule="evenodd" d="M159.764 138.889C158.955 138.889 158.349 139.496 158.349 140.305C158.349 141.113 158.955 141.719 159.764 141.719C160.573 141.719 161.179 141.113 161.179 140.305C161.179 139.496 160.573 138.889 159.764 138.889Z" fill="#99B9EE"/>
<path fill-rule="evenodd" clip-rule="evenodd" d="M168.255 138.889C167.446 138.889 166.84 139.496 166.84 140.305C166.84 141.113 167.446 141.719 168.255 141.719C168.996 141.719 169.67 141.113 169.67 140.305C169.67 139.496 169.063 138.889 168.255 138.889Z" fill="#99B9EE"/>
<path fill-rule="evenodd" clip-rule="evenodd" d="M155.519 138.889C154.71 138.889 154.104 139.496 154.104 140.305C154.104 141.113 154.71 141.719 155.519 141.719C156.327 141.719 156.934 141.113 156.934 140.305C156.934 139.496 156.327 138.889 155.519 138.889Z" fill="#99B9EE"/>
<path fill-rule="evenodd" clip-rule="evenodd" d="M172.5 138.889C171.691 138.889 171.085 139.496 171.085 140.305C171.085 141.113 171.691 141.719 172.5 141.719C173.241 141.719 173.915 141.113 173.915 140.305C173.915 139.496 173.309 138.889 172.5 138.889Z" fill="#99B9EE"/>
<path fill-rule="evenodd" clip-rule="evenodd" d="M164.01 138.889C163.201 138.889 162.594 139.496 162.594 140.305C162.594 141.113 163.201 141.719 164.01 141.719C164.818 141.719 165.425 141.113 165.425 140.305C165.425 139.496 164.818 138.889 164.01 138.889Z" fill="#99B9EE"/>
<path fill-rule="evenodd" clip-rule="evenodd" d="M151.341 138.889C150.532 138.889 149.926 139.496 149.926 140.305C149.926 141.113 150.532 141.719 151.341 141.719C152.082 141.719 152.756 141.113 152.756 140.305C152.756 139.496 152.15 138.889 151.341 138.889Z" fill="#99B9EE"/>
<path fill-rule="evenodd" clip-rule="evenodd" d="M147.096 138.889C146.287 138.889 145.681 139.496 145.681 140.305C145.681 141.113 146.287 141.719 147.096 141.719C147.837 141.719 148.511 141.113 148.511 140.305C148.511 139.496 147.904 138.889 147.096 138.889Z" fill="#99B9EE"/>
<path fill-rule="evenodd" clip-rule="evenodd" d="M89.6519 218.118L91.2732 212.569C90.2537 212.207 89.253 210.877 88.6883 209.697C88.6829 209.702 88.6782 209.708 88.6721 209.711C87.3918 210.52 86.0441 210.587 84.629 210.251C84.5171 210.251 84.4214 210.21 84.3379 210.15L85.9767 217.528C86.1034 218.098 86.1775 218.672 86.2085 219.246C85.8534 219.736 85.4113 220.182 84.9659 220.628C84.7152 220.879 84.5259 221.36 84.3911 221.752C84.505 221.761 84.6169 221.802 84.6964 221.908C86.9875 224.941 90.1553 226.962 93.726 226.693C94.2092 226.895 94.6627 227.243 95.0333 227.636H95.9706C94.7995 226.812 93.4888 225.947 92.3116 225.075C91.069 224.143 90.2159 221.425 89.6519 218.118Z" fill="#B97A59"/>
<path fill-rule="evenodd" clip-rule="evenodd" d="M79.3732 92.191H79.7101H81.4622H82.5518L83.946 87.4039L84.0316 87.0993C83.9379 87.0205 83.8496 86.9511 83.7533 86.8675C82.8671 86.129 82.165 84.9592 81.8483 83.8823C81.4534 83.7779 81.0713 83.2853 80.7957 82.6681C82.0437 82.2718 83.7472 81.9477 86.4487 80.6681C88.952 79.4666 90.0976 78.6451 90.6596 77.9342C90.9271 78.9578 91.4339 80.2813 92.3732 81.5185C92.3166 82.0589 92.2337 82.6101 92.1091 83.1613C91.57 85.8567 89.818 89.3608 88.7398 89.3608C88.7283 89.3608 88.7169 89.3588 88.7054 89.3588L88.7398 90.5063L88.733 90.5104L88.7802 92.191H91.57H93.5242H93.7937C94.2741 92.191 94.729 92.2826 95.1569 92.4309C95.6603 91.166 95.95 89.7354 95.95 88.2152C95.95 86.6499 95.6461 85.1775 95.1144 83.8864C95.1239 83.8918 95.132 83.8972 95.1414 83.9026C95.1414 83.9026 94.2074 82.0629 93.6515 80.0811C94.1886 79.0292 94.7297 77.4457 94.9392 75.1425C94.9675 74.8925 94.9595 74.6842 94.9258 74.5063C94.8658 73.9046 94.5774 73.3392 94.198 72.8513C93.3894 71.7058 91.7721 71.5036 90.5592 72.1775C89.7506 72.6492 88.7398 72.9187 87.729 72.9187H84.225C82.136 72.9187 80.384 74.6708 80.384 76.7597H80.3166V79.9073C80.3058 79.9194 80.2944 79.9302 80.2836 79.9423C79.4797 79.6741 78.634 79.5016 77.756 79.4551C73.2411 79.1856 69.3328 81.9484 67.8503 85.9241C67.3112 87.3392 65.9635 88.2152 64.481 88.2152C63.8746 88.2152 63.2681 88.2826 62.5942 88.4174C58.888 89.1586 55.9231 92.3257 55.5861 96.1667C55.5612 96.4201 55.5504 96.6708 55.5464 96.9201C56.6758 97.4632 57.8341 97.9194 59.0228 98.2557C60.5727 98.66 62.1225 98.9969 63.6724 99.0643C65.2223 99.1317 66.7721 98.9969 68.322 98.7274C69.8719 98.4578 71.3543 97.9187 72.7694 97.3123C73.4433 96.9753 74.1845 96.6384 74.8584 96.2341C75.0599 96.1128 75.256 95.9922 75.4433 95.8709C75.4574 95.7732 75.475 95.6761 75.4958 95.5805C75.7452 93.6189 77.4103 92.191 79.3732 92.191Z" fill="#0B4870"/>
<path fill-rule="evenodd" clip-rule="evenodd" d="M77.2843 114.226C76.8227 110.809 76.0761 105.368 75.6954 101C75.351 101.166 75.0047 101.329 74.6563 101.49C72.9043 102.232 71.0175 102.703 69.1307 103.04C65.2897 103.579 61.3813 103.04 57.8773 101.692C57.4198 101.517 56.973 101.325 56.533 101.123C57.2149 102.436 58.2129 103.557 59.4272 104.387C60.5053 105.129 61.1792 106.342 61.314 107.69C62.19 113.755 67.7156 118.269 74.0498 117.527C75.2398 117.394 76.376 117.064 77.4359 116.586C77.4588 115.792 77.409 115 77.2843 114.226Z" fill="#0B4870"/>
<path fill-rule="evenodd" clip-rule="evenodd" d="M97.2312 100.98C98.463 101.296 99.7191 101.543 101.004 101.692C103.902 102.029 106.934 101.692 109.629 100.884C112.325 100.075 114.751 98.997 117.109 98.1884C119.386 97.3663 121.609 96.9121 123.989 96.747C124.309 97.0813 124.807 97.208 125.398 97.3124C125.962 97.4121 126.656 96.6608 127.217 95.8724C127.794 95.0617 128.228 94.2127 128.228 94.2127C128.228 94.2127 130.654 91.3151 129.845 91.2477C129.159 91.1904 127.941 92.681 127.217 92.9708C127.088 93.0226 126.972 93.0408 126.88 92.9997C126.474 92.8191 126.738 92.183 127.217 91.4795C127.453 91.1338 127.737 90.7726 128.026 90.4391C128.902 89.3609 130.788 87.3394 129.508 87.272C129.252 87.272 128.187 87.8394 127.217 88.5631C126.654 88.9829 126.123 89.4546 125.802 89.9C124.966 91.057 123.955 93.1904 123.688 94.8474C121.301 94.5846 118.78 94.7336 116.368 95.1561C113.673 95.6278 111.179 96.3016 108.753 96.6385C106.395 96.9755 104.104 96.9755 101.88 96.4364C100.463 96.0927 99.0742 95.6008 97.6941 95.0186C97.7945 95.3205 97.8734 95.6332 97.9044 95.9647C97.992 97.0381 97.7083 98.8535 97.2312 100.98Z" fill="#B97A59"/>
<path fill-rule="evenodd" clip-rule="evenodd" d="M92.8505 178.58C92.494 179.787 91.9017 183.276 91.2487 187.739C90.4596 193.128 89.5809 199.935 88.9172 205.862C88.6894 198.711 88.3215 190.911 88.0722 186.427C87.9845 184.85 87.9111 183.677 87.8639 183.094C87.8639 182.825 87.7965 182.555 87.7292 182.218C88.6779 177.014 89.2831 169.27 89.6806 161.745C89.6874 161.619 89.6941 161.494 89.7009 161.369C89.7224 160.954 89.7426 160.54 89.7629 160.127C89.9845 160.518 90.2062 160.909 90.43 161.298C91.0553 162.388 91.6887 163.464 92.3228 164.514C92.5661 164.916 92.8093 165.315 93.0526 165.708C95.1052 169.019 95.3956 173.174 93.6806 176.64C93.6503 176.702 93.6234 176.766 93.5917 176.827C93.5721 176.867 93.554 176.91 93.5344 176.951C93.2851 177.46 93.0378 178.017 92.8505 178.58ZM88.6726 209.712C88.6786 209.708 88.6827 209.702 88.6881 209.697C89.2527 210.877 90.2534 212.206 91.273 212.568C91.3046 212.58 91.3363 212.6 91.368 212.609C93.5924 206.896 96.4697 198.588 98.7116 191.903C100.409 186.84 101.743 182.707 102.15 181.342C102.172 181.27 102.193 181.194 102.215 181.121C102.706 179.511 103.185 177.747 103.509 176.022C103.526 175.931 103.549 175.84 103.565 175.749C104.121 174.582 104.288 172.491 104.194 169.875C104.111 167.58 103.826 164.879 103.414 162.019C103.347 161.551 103.276 161.079 103.203 160.603C103.003 159.313 102.782 158.004 102.545 156.693C102.328 155.496 102.1 154.302 101.863 153.123C101.519 151.402 101.16 149.72 100.801 148.125C99.8666 143.974 98.9428 140.443 98.3154 138.448C98.2164 138.134 98.122 137.844 98.0391 137.609C97.7123 136.706 97.2851 135.832 96.7918 134.999C84.5209 138.147 75.5762 133.353 73.2844 131.927C72.3673 133.295 71.6436 134.815 71.2197 136.396C70.866 137.668 71.1072 140.872 71.7474 145.098C72.1968 148.068 72.843 151.54 73.6207 155.21C74.9017 161.255 76.5371 167.826 78.2278 173.526C78.4798 174.379 78.6638 175.245 78.7965 176.116C78.8963 176.77 78.9684 177.429 79.0041 178.088C79.0843 179.6 79.0007 181.12 78.7669 182.623C78.43 184.712 78.3626 186.935 78.4974 188.553C78.6995 191.046 81.4623 201.086 84.0903 209.779C84.1301 209.937 84.2191 210.065 84.3376 210.15C84.4212 210.21 84.5176 210.251 84.6294 210.251C86.0445 210.588 87.3922 210.52 88.6726 209.712Z" fill="#0B4870"/>
<path fill-rule="evenodd" clip-rule="evenodd" d="M96.7918 134.999C97.0721 134.928 97.3511 134.859 97.6348 134.779C98.1065 132.016 96.6914 125.143 94.872 120.83C93.7938 118.336 93.5243 115.574 94.1307 112.945C94.3955 111.666 94.7527 110.204 95.153 108.671C95.9252 106.114 96.6988 103.353 97.2311 100.98C97.7082 98.8531 97.9919 97.0384 97.9043 95.965C97.8733 95.6335 97.7945 95.3208 97.6941 95.0182C97.2877 93.7932 96.3538 92.8471 95.157 92.4313C94.7291 92.2824 94.2743 92.1914 93.7938 92.1914H93.5243H91.5701H88.7803L88.8073 93.1348L82.473 92.4609L82.5519 92.1914H81.4623H79.7102H79.3733C77.4104 92.1914 75.7453 93.6193 75.4959 95.5809C75.4751 95.6766 75.4575 95.7736 75.4434 95.8713C75.5687 95.7898 75.6934 95.7089 75.8019 95.6281C75.9366 95.4933 76.1388 95.4252 76.2736 95.2911L76.6779 95.0216L76.8127 94.8868C77.8234 94.0775 79.3059 94.2804 80.1145 95.2911C80.8558 96.3019 80.721 97.717 79.7102 98.5256C79.4407 98.7278 79.2385 98.8626 79.0364 99.0647C78.8342 99.1995 78.6321 99.3336 78.4299 99.4684C78.0256 99.7386 77.6213 100.007 77.217 100.21C76.7305 100.494 76.2163 100.751 75.6954 101.001C76.0761 105.367 76.8228 110.809 77.2844 114.226C77.409 115 77.4589 115.792 77.436 116.586C77.3962 117.935 77.1442 119.288 76.6779 120.56L72.7021 131.545C72.7021 131.545 72.9057 131.691 73.2844 131.927C75.5761 133.353 84.5209 138.147 96.7918 134.999Z" fill="#FDB32A"/>
<path fill-rule="evenodd" clip-rule="evenodd" d="M87.4597 90.911C85.9772 90.911 84.8316 88.6199 83.8882 87.6091L83.9462 87.4043L82.552 92.1914L82.4731 92.4609L88.8074 93.1348L88.7804 92.1914L88.7333 90.5108C88.331 90.7769 87.9287 90.911 87.4597 90.911Z" fill="#B97A59"/>
<path fill-rule="evenodd" clip-rule="evenodd" d="M87.4596 90.9109C87.9286 90.9109 88.3309 90.7768 88.7332 90.5107L88.7399 90.5066L88.7056 89.359C87.3659 89.3483 85.9562 88.7216 84.0317 87.0996L83.9461 87.4042L83.8882 87.609C84.8316 88.6198 85.9771 90.9109 87.4596 90.9109Z" fill="#AA6B4F"/>
<path fill-rule="evenodd" clip-rule="evenodd" d="M88.7056 89.3586C88.7171 89.3586 88.7285 89.3606 88.74 89.3606C89.8181 89.3606 91.5702 85.8566 92.1092 83.1612C92.2339 82.61 92.3168 82.0587 92.3734 81.5183C91.434 80.2811 90.9266 78.9577 90.6591 77.9341C90.0978 78.6457 88.9522 79.4664 86.4489 80.6679C83.7474 81.9476 82.0439 82.2717 80.7959 82.6679C81.0708 83.2852 81.4536 83.7777 81.8485 83.8822C82.1645 84.959 82.8667 86.1288 83.7534 86.8674C83.8491 86.9509 83.9381 87.0203 84.0317 87.0992C85.9563 88.7211 87.366 89.3478 88.7056 89.3586Z" fill="#B97A59"/>
<path fill-rule="evenodd" clip-rule="evenodd" d="M56.533 101.123C56.9731 101.325 57.4198 101.517 57.8774 101.693C61.3814 103.04 65.2898 103.58 69.1307 103.04C71.0175 102.703 72.9043 102.232 74.6563 101.49C75.0047 101.33 75.3511 101.166 75.6954 101.001C76.2163 100.751 76.7305 100.494 77.217 100.211C77.6213 100.008 78.0256 99.7385 78.4299 99.4689C78.6321 99.3341 78.8342 99.2 79.0364 99.0646C79.2385 98.8624 79.4407 98.7277 79.7102 98.5255C80.721 97.7169 80.8558 96.3018 80.1146 95.291C79.3059 94.2802 77.8235 94.0781 76.8127 94.8867L76.6779 95.0215L76.2736 95.291C76.1388 95.4258 75.9367 95.4932 75.8019 95.6279C75.6941 95.7095 75.5694 95.7903 75.4434 95.8719C75.2561 95.9925 75.06 96.1131 74.8585 96.2344C74.1846 96.6387 73.4434 96.9756 72.7695 97.3126C71.3545 97.919 69.872 98.4581 68.3221 98.7277C66.7722 98.9972 65.2224 99.132 63.6725 99.0646C62.1226 98.9972 60.5728 98.6603 59.0229 98.256C57.8342 97.9204 56.6759 97.4635 55.5465 96.9204C53.7311 96.0464 51.9919 94.946 50.3302 93.7411C50.1341 93.5942 49.9495 93.4332 49.7567 93.2829C47.9346 91.8638 46.2231 90.3011 44.5748 88.6178C44.6065 88.5727 44.6381 88.5322 44.6698 88.4851C45.3437 87.4743 43.12 84.5093 43.12 84.5093C43.12 84.5093 43.0169 84.2668 42.8592 83.9258L39.6152 86.9548C40.3113 87.7971 41.1166 88.5882 41.907 89.0915C42.4104 89.4271 42.8167 89.568 43.1664 89.574C44.7931 91.7735 46.6166 93.8901 48.6456 95.7627C48.7439 95.851 48.845 95.9366 48.9441 96.0242C50.2028 97.1394 51.5216 98.1946 52.9582 99.132C54.1038 99.8786 55.2864 100.55 56.533 101.123Z" fill="#B97A59"/>
<path fill-rule="evenodd" clip-rule="evenodd" d="M93.7263 226.692C90.1548 226.962 86.9877 224.94 84.6966 221.908C84.6171 221.801 84.5046 221.761 84.3914 221.751C84.2168 221.737 84.0369 221.812 83.9554 221.975C83.6184 222.649 83.1467 223.526 82.9446 223.863C82.7424 224.266 82.8772 224.805 83.2141 225.075C83.2141 225.075 83.4709 225.39 84.3678 225.952C84.2047 226.619 84.5463 227.338 85.2357 227.569C85.2977 227.59 85.3651 227.613 85.4298 227.635H95.0335C94.6622 227.243 94.2087 226.896 93.7263 226.692Z" fill="#0B4870"/>
<path fill-rule="evenodd" clip-rule="evenodd" d="M17.8505 114.024C13.0662 115.843 7.60793 113.485 5.78852 108.634C3.96912 103.849 6.32761 98.391 11.1794 96.5716C15.9637 94.7515 21.4219 97.11 23.2414 101.962C25.0608 106.814 22.6349 112.205 17.8505 114.024ZM48.9819 78.209L67.7831 60.6551L72.6349 65.4388L77.4866 60.5204L73.6457 56.6787L75.1281 54.9274L79.1039 58.4988L82.4732 54.6571L78.2953 50.8168L80.2494 48.9974L75.8694 44.2124L46.4482 71.1201L22.2306 93.2697C18.5244 90.9112 13.8074 90.3047 9.35995 91.9894C1.94755 94.8195 -1.75865 103.108 1.13893 110.52C4.0365 117.933 12.2575 121.639 19.6699 118.741C27.0823 115.911 30.7885 107.623 27.8909 100.21C27.6888 99.6706 27.4193 99.1315 27.1497 98.5931L39.6153 86.9543L42.8586 83.926L48.9819 78.209Z" fill="#C5D6F1"/>
</svg>
